{
	"asset":{
		"version":"2.0",
		"generator":"Maxon Cinema 4D 2024.1.0 (#200000219)"
	},
	"scenes":[{
		"nodes":[0,
		1]
	}],
	"images":[{
		"uri":"data:image/jpeg;base64,"
	},
	{
		"uri":"data:image/jpeg;base64,"
	}],
	"nodes":[{
		"name":"LEafhead",
		"mesh":0,
		"translation":[-0.014846613630652428,
		0.150016650557518,
		-5.019857883453369],
		"rotation":[-3.6370895444698405e-13,
		0.9999968409538269,
		-0.0025059173349291088,
		-1.451884584779961e-10],
		"scale":[1.0,
		1.0,
		1.0]
	},
	{
		"name":"Null",
		"translation":[0.0,
		0.0,
		-2.843723773956299],
		"rotation":[0.0,
		0.0,
		0.0,
		-1.0],
		"scale":[1.0,
		1.0,
		1.0],
		"children":[2,
		3,
		4]
	},
	{
		"name":"Cube 1",
		"mesh":1,
		"translation":[0.0,
		1.2195494174957276,
		2.6230993270874025],
		"rotation":[0.0,
		0.0,
		0.0,
		-1.0],
		"scale":[1.0,
		1.0,
		1.0]
	},
	{
		"name":"Sphere.1",
		"translation":[-0.7242499589920044,
		0.5499610304832459,
		2.543827533721924],
		"rotation":[-0.7071067690849304,
		0.0,
		0.0,
		-0.7071067690849304],
		"scale":[1.0,
		1.0,
		1.0],
		"children":[5,
		6,
		7]
	},
	{
		"name":"Sphere",
		"translation":[0.7647026181221008,
		0.5499610304832459,
		2.543827533721924],
		"rotation":[-0.7071067690849304,
		0.0,
		0.0,
		-0.7071067690849304],
		"scale":[1.0,
		1.0,
		1.0],
		"children":[8,
		9,
		10]
	},
	{
		"name":"Sphere.1-Mat.10",
		"mesh":2
	},
	{
		"name":"Sphere.1-Mat.9",
		"mesh":3
	},
	{
		"name":"Sphere.1-Mat.1",
		"mesh":4
	},
	{
		"name":"Sphere-Mat.10",
		"mesh":5
	},
	{
		"name":"Sphere-Mat.9",
		"mesh":6
	},
	{
		"name":"Sphere-Mat.1",
		"mesh":7
	}],
	"meshes":[{
		"name":"LEafhead",
		"primitives":[{
			"attributes":{
				"POSITION":1,
				"NORMAL":2,
				"TEXCOORD_0":3
			},
			"indices":0,
			"material":0
		}]
	},
	{
		"name":"Cube 1",
		"primitives":[{
			"material":1,
			"targets":[{
				"POSITION":14
			},
			{
				"POSITION":15
			}],
			"attributes":{
				"POSITION":11,
				"NORMAL":12,
				"TEXCOORD_0":13
			},
			"indices":10
		}],
		"extras":{
			"targetNames":["Pose.0",
			"Pose.1"]
		},
		"weights":[0.0,
		0.0]
	},
	{
		"name":"Sphere.1-Mat.10",
		"primitives":[{
			"attributes":{
				"POSITION":19,
				"NORMAL":20,
				"TEXCOORD_0":21
			},
			"indices":18,
			"material":2
		}]
	},
	{
		"name":"Sphere.1-Mat.9",
		"primitives":[{
			"attributes":{
				"POSITION":23,
				"NORMAL":24,
				"TEXCOORD_0":25
			},
			"indices":22,
			"material":1
		}]
	},
	{
		"name":"Sphere.1-Mat.1",
		"primitives":[{
			"attributes":{
				"POSITION":27,
				"NORMAL":28,
				"TEXCOORD_0":29
			},
			"indices":26,
			"material":3
		}]
	},
	{
		"name":"Sphere-Mat.10",
		"primitives":[{
			"attributes":{
				"POSITION":31,
				"NORMAL":32,
				"TEXCOORD_0":33
			},
			"indices":30,
			"material":2
		}]
	},
	{
		"name":"Sphere-Mat.9",
		"primitives":[{
			"attributes":{
				"POSITION":35,
				"NORMAL":36,
				"TEXCOORD_0":37
			},
			"indices":34,
			"material":1
		}]
	},
	{
		"name":"Sphere-Mat.1",
		"primitives":[{
			"attributes":{
				"POSITION":39,
				"NORMAL":40,
				"TEXCOORD_0":41
			},
			"indices":38,
			"material":3
		}]
	}],
	"accessors":[{
		"count":2160,
		"bufferView":0,
		"type":"SCALAR",
		"componentType":5123,
		"byteOffset":0,
		"min":[0],
		"max":[2159]
	},
	{
		"count":2160,
		"bufferView":1,
		"type":"VEC3",
		"componentType":5126,
		"byteOffset":0,
		"min":[-4.004316329956055,
		0.021212950348854066,
		-8.13316535949707],
		"max":[4.015683650970459,
		3.419175386428833,
		-0.11316514760255814]
	},
	{
		"count":2160,
		"bufferView":1,
		"type":"VEC3",
		"componentType":5126,
		"byteOffset":12,
		"min":[-0.8007007241249085,
		-1.0,
		-0.7908424139022827],
		"max":[0.6384595036506653,
		1.0,
		0.7908424139022827]
	},
	{
		"count":2160,
		"bufferView":1,
		"type":"VEC2",
		"componentType":5126,
		"byteOffset":24,
		"min":[0.018627876415848733,
		0.016340993344783784],
		"max":[0.9801331758499146,
		0.9811286926269531]
	},
	{
		"count":38,
		"bufferView":2,
		"type":"SCALAR",
		"componentType":5126,
		"byteOffset":0,
		"min":[0.0],
		"max":[1.2333333492279053]
	},
	{
		"count":38,
		"bufferView":2,
		"type":"VEC4",
		"componentType":5126,
		"byteOffset":152,
		"min":[-1.3431894485549379e-11,
		0.9958524107933044,
		-0.0909833312034607,
		-1.4701929951232985e-10],
		"max":[-3.6370895444698405e-13,
		0.9999968409538269,
		-0.0025059173349291088,
		-1.451884584779961e-10]
	},
	{
		"count":38,
		"bufferView":3,
		"type":"SCALAR",
		"componentType":5126,
		"byteOffset":0,
		"min":[0.0],
		"max":[1.2333333492279053]
	},
	{
		"count":38,
		"bufferView":3,
		"type":"VEC3",
		"componentType":5126,
		"byteOffset":152,
		"min":[0.0,
		0.0,
		-2.843723773956299],
		"max":[0.0,
		0.0,
		0.09886891394853592]
	},
	{
		"count":38,
		"bufferView":4,
		"type":"SCALAR",
		"componentType":5126,
		"byteOffset":0,
		"min":[0.0],
		"max":[1.2333333492279053]
	},
	{
		"count":38,
		"bufferView":4,
		"type":"VEC4",
		"componentType":5126,
		"byteOffset":152,
		"min":[0.0,
		-0.1999034732580185,
		0.0,
		-1.0],
		"max":[0.0,
		0.0,
		0.0,
		0.999992847442627]
	},
	{
		"count":792,
		"bufferView":5,
		"type":"SCALAR",
		"componentType":5123,
		"byteOffset":0,
		"min":[0],
		"max":[791]
	},
	{
		"count":792,
		"bufferView":6,
		"type":"VEC3",
		"componentType":5126,
		"byteOffset":0,
		"min":[-1.5713789463043213,
		-0.35928019881248476,
		-0.17711584270000459],
		"max":[1.5600346326828004,
		0.08714655786752701,
		0.21074295043945313]
	},
	{
		"count":792,
		"bufferView":6,
		"type":"VEC3",
		"componentType":5126,
		"byteOffset":12,
		"min":[-1.0,
		-0.999474823474884,
		-0.9999994039535523],
		"max":[1.0,
		0.999474823474884,
		0.9995394945144653]
	},
	{
		"count":792,
		"bufferView":6,
		"type":"VEC2",
		"componentType":5126,
		"byteOffset":24,
		"min":[0.00032597474637441337,
		0.0003259747172705829],
		"max":[0.9879525303840637,
		0.9990243911743164]
	},
	{
		"count":792,
		"bufferView":7,
		"type":"VEC3",
		"componentType":5126,
		"byteOffset":0,
		"min":[0.0,
		-0.0949985459446907,
		0.0],
		"max":[0.0,
		0.1899970918893814,
		0.0]
	},
	{
		"count":792,
		"bufferView":8,
		"type":"VEC3",
		"componentType":5126,
		"byteOffset":0,
		"min":[0.0,
		-0.11463402956724167,
		0.0],
		"max":[0.08069686591625214,
		0.17545214295387269,
		0.0]
	},
	{
		"count":8,
		"bufferView":9,
		"type":"SCALAR",
		"componentType":5126,
		"byteOffset":0,
		"min":[0.0],
		"max":[1.2333333492279053]
	},
	{
		"count":16,
		"bufferView":9,
		"type":"SCALAR",
		"componentType":5126,
		"byteOffset":32,
		"min":[0.0],
		"max":[1.0]
	},
	{
		"count":1512,
		"bufferView":10,
		"type":"SCALAR",
		"componentType":5123,
		"byteOffset":0,
		"min":[0],
		"max":[1511]
	},
	{
		"count":1512,
		"bufferView":11,
		"type":"VEC3",
		"componentType":5126,
		"byteOffset":0,
		"min":[-0.5,
		-0.5,
		-0.5],
		"max":[0.5,
		0.4682779610157013,
		0.5]
	},
	{
		"count":1512,
		"bufferView":11,
		"type":"VEC3",
		"componentType":5126,
		"byteOffset":12,
		"min":[-1.0,
		-1.0,
		-1.0],
		"max":[0.9999802112579346,
		0.9676296710968018,
		1.0]
	},
	{
		"count":1512,
		"bufferView":11,
		"type":"VEC2",
		"componentType":5126,
		"byteOffset":24,
		"min":[0.0003255211340729147,
		0.09691908955574036],
		"max":[0.9993498921394348,
		0.9664087295532227]
	},
	{
		"count":72,
		"bufferView":12,
		"type":"SCALAR",
		"componentType":5123,
		"byteOffset":0,
		"min":[0],
		"max":[71]
	},
	{
		"count":72,
		"bufferView":13,
		"type":"VEC3",
		"componentType":5126,
		"byteOffset":0,
		"min":[-0.07319549471139908,
		0.4986254870891571,
		-0.07319549471139908],
		"max":[0.07319549471139908,
		0.5044211745262146,
		0.07319549471139908]
	},
	{
		"count":72,
		"bufferView":13,
		"type":"VEC3",
		"componentType":5126,
		"byteOffset":12,
		"min":[-0.07890927046537399,
		0.9968798756599426,
		-0.07890927046537399],
		"max":[0.07890927046537399,
		1.0,
		0.07890927046537399]
	},
	{
		"count":72,
		"bufferView":13,
		"type":"VEC2",
		"componentType":5126,
		"byteOffset":24,
		"min":[0.15544138848781587,
		0.8155386447906494],
		"max":[0.23930786550045014,
		0.8994406461715698]
	},
	{
		"count":576,
		"bufferView":14,
		"type":"SCALAR",
		"componentType":5123,
		"byteOffset":0,
		"min":[0],
		"max":[575]
	},
	{
		"count":576,
		"bufferView":15,
		"type":"VEC3",
		"componentType":5126,
		"byteOffset":0,
		"min":[-0.23149999976158143,
		0.4682779610157013,
		-0.23149999976158143],
		"max":[0.23149999976158143,
		0.5047885775566101,
		0.23149999976158143]
	},
	{
		"count":576,
		"bufferView":15,
		"type":"VEC3",
		"componentType":5126,
		"byteOffset":12,
		"min":[-1.0,
		0.0,
		-0.8660113215446472],
		"max":[0.5000245571136475,
		0.9968875050544739,
		1.0]
	},
	{
		"count":576,
		"bufferView":15,
		"type":"VEC2",
		"componentType":5126,
		"byteOffset":24,
		"min":[0.0003255211340729147,
		0.00032552110496908426],
		"max":[0.9993498921394348,
		0.9567171335220337]
	},
	{
		"count":1512,
		"bufferView":16,
		"type":"SCALAR",
		"componentType":5123,
		"byteOffset":0,
		"min":[0],
		"max":[1511]
	},
	{
		"count":1512,
		"bufferView":17,
		"type":"VEC3",
		"componentType":5126,
		"byteOffset":0,
		"min":[-0.5,
		-0.5,
		-0.5],
		"max":[0.5,
		0.4682779610157013,
		0.5]
	},
	{
		"count":1512,
		"bufferView":17,
		"type":"VEC3",
		"componentType":5126,
		"byteOffset":12,
		"min":[-1.0,
		-1.0,
		-1.0],
		"max":[0.9999802112579346,
		0.9676296710968018,
		1.0]
	},
	{
		"count":1512,
		"bufferView":17,
		"type":"VEC2",
		"componentType":5126,
		"byteOffset":24,
		"min":[0.0003255211340729147,
		0.09691908955574036],
		"max":[0.9993498921394348,
		0.9664087295532227]
	},
	{
		"count":72,
		"bufferView":18,
		"type":"SCALAR",
		"componentType":5123,
		"byteOffset":0,
		"min":[0],
		"max":[71]
	},
	{
		"count":72,
		"bufferView":19,
		"type":"VEC3",
		"componentType":5126,
		"byteOffset":0,
		"min":[-0.07319549471139908,
		0.4986254870891571,
		-0.07319549471139908],
		"max":[0.07319549471139908,
		0.5044211745262146,
		0.07319549471139908]
	},
	{
		"count":72,
		"bufferView":19,
		"type":"VEC3",
		"componentType":5126,
		"byteOffset":12,
		"min":[-0.07890927046537399,
		0.9968798756599426,
		-0.07890927046537399],
		"max":[0.07890927046537399,
		1.0,
		0.07890927046537399]
	},
	{
		"count":72,
		"bufferView":19,
		"type":"VEC2",
		"componentType":5126,
		"byteOffset":24,
		"min":[0.15544138848781587,
		0.8155386447906494],
		"max":[0.23930786550045014,
		0.8994406461715698]
	},
	{
		"count":576,
		"bufferView":20,
		"type":"SCALAR",
		"componentType":5123,
		"byteOffset":0,
		"min":[0],
		"max":[575]
	},
	{
		"count":576,
		"bufferView":21,
		"type":"VEC3",
		"componentType":5126,
		"byteOffset":0,
		"min":[-0.23149999976158143,
		0.4682779610157013,
		-0.23149999976158143],
		"max":[0.23149999976158143,
		0.5047885775566101,
		0.23149999976158143]
	},
	{
		"count":576,
		"bufferView":21,
		"type":"VEC3",
		"componentType":5126,
		"byteOffset":12,
		"min":[-1.0,
		0.0,
		-0.8660113215446472],
		"max":[0.5000245571136475,
		0.9968875050544739,
		1.0]
	},
	{
		"count":576,
		"bufferView":21,
		"type":"VEC2",
		"componentType":5126,
		"byteOffset":24,
		"min":[0.0003255211340729147,
		0.00032552110496908426],
		"max":[0.9993498921394348,
		0.9567171335220337]
	}],
	"bufferViews":[{
		"buffer":0,
		"byteOffset":0,
		"byteLength":4320,
		"target":34963
	},
	{
		"buffer":0,
		"byteOffset":4320,
		"byteLength":69120,
		"target":34962,
		"byteStride":32
	},
	{
		"buffer":1,
		"byteOffset":0,
		"byteLength":760
	},
	{
		"buffer":2,
		"byteOffset":0,
		"byteLength":608
	},
	{
		"buffer":2,
		"byteOffset":608,
		"byteLength":760
	},
	{
		"buffer":3,
		"byteOffset":0,
		"byteLength":1584,
		"target":34963
	},
	{
		"buffer":3,
		"byteOffset":1584,
		"byteLength":25344,
		"target":34962,
		"byteStride":32
	},
	{
		"buffer":3,
		"byteOffset":26928,
		"byteLength":9504,
		"target":34962
	},
	{
		"buffer":3,
		"byteOffset":36432,
		"byteLength":9504,
		"target":34962
	},
	{
		"buffer":4,
		"byteOffset":0,
		"byteLength":96
	},
	{
		"buffer":5,
		"byteOffset":0,
		"byteLength":3024,
		"target":34963
	},
	{
		"buffer":5,
		"byteOffset":3024,
		"byteLength":48384,
		"target":34962,
		"byteStride":32
	},
	{
		"buffer":6,
		"byteOffset":0,
		"byteLength":144,
		"target":34963
	},
	{
		"buffer":6,
		"byteOffset":144,
		"byteLength":2304,
		"target":34962,
		"byteStride":32
	},
	{
		"buffer":7,
		"byteOffset":0,
		"byteLength":1152,
		"target":34963
	},
	{
		"buffer":7,
		"byteOffset":1152,
		"byteLength":18432,
		"target":34962,
		"byteStride":32
	},
	{
		"buffer":8,
		"byteOffset":0,
		"byteLength":3024,
		"target":34963
	},
	{
		"buffer":8,
		"byteOffset":3024,
		"byteLength":48384,
		"target":34962,
		"byteStride":32
	},
	{
		"buffer":9,
		"byteOffset":0,
		"byteLength":144,
		"target":34963
	},
	{
		"buffer":9,
		"byteOffset":144,
		"byteLength":2304,
		"target":34962,
		"byteStride":32
	},
	{
		"buffer":10,
		"byteOffset":0,
		"byteLength":1152,
		"target":34963
	},
	{
		"buffer":10,
		"byteOffset":1152,
		"byteLength":18432,
		"target":34962,
		"byteStride":32
	}],
	"buffers":[{
		"uri":"data:application/octet-stream;base64,",
		"byteLength":73440
	},
	{
		"uri":"data:application/octet-stream;base64,",
		"byteLength":760
	},
	{
		"uri":"data:application/octet-stream;base64,",
		"byteLength":1368
	},
	{
		"uri":"data:application/octet-stream;base64,",
		"byteLength":45936
	},
	{
		"uri":"data:application/octet-stream;base64,",
		"byteLength":96
	},
	{
		"uri":"data:application/octet-stream;base64,",
		"byteLength":51408
	},
	{
		"uri":"data:application/octet-stream;base64,",
		"byteLength":2448
	},
	{
		"uri":"data:application/octet-stream;base64,",
		"byteLength":19584
	},
	{
		"uri":"data:application/octet-stream;base64,",
		"byteLength":51408
	},
	{
		"uri":"data:application/octet-stream;base64,",
		"byteLength":2448
	},
	{
		"uri":"data:application/octet-stream;base64,",
		"byteLength":19584
	}],
	"samplers":[{
		"magFilter":9729,
		"minFilter":9729,
		"wrapS":10497,
		"wrapT":10497
	},
	{
		"magFilter":9729,
		"minFilter":9729,
		"wrapS":10497,
		"wrapT":10497
	}],
	"textures":[{
		"sampler":0,
		"source":0
	},
	{
		"sampler":1,
		"source":1
	}],
	"materials":[{
		"pbrMetallicRoughness":{
			"baseColorTexture":{
				"index":0
			},
			"baseColorFactor":[1.0,
			1.0,
			1.0,
			1.0],
			"metallicFactor":1.0,
			"roughnessFactor":1.0
		},
		"normalTexture":{
			"index":1,
			"scale":0.7000000000000001
		},
		"emissiveFactor":[0.0,
		0.0,
		0.0],
		"alphaMode":"OPAQUE",
		"doubleSided":true,
		"name":"Mat.18"
	},
	{
		"pbrMetallicRoughness":{
			"baseColorFactor":[0.0,
			0.0,
			0.0,
			1.0],
			"metallicFactor":0.0,
			"roughnessFactor":0.5
		},
		"emissiveFactor":[0.0,
		0.0,
		0.0],
		"alphaMode":"OPAQUE",
		"doubleSided":true,
		"name":"Mat.9"
	},
	{
		"pbrMetallicRoughness":{
			"baseColorFactor":[1.0,
			1.0,
			1.0,
			1.0],
			"metallicFactor":0.0,
			"roughnessFactor":0.5
		},
		"emissiveFactor":[0.0,
		0.0,
		0.0],
		"alphaMode":"OPAQUE",
		"doubleSided":true,
		"name":"Mat.10"
	},
	{
		"pbrMetallicRoughness":{
			"baseColorFactor":[0.0,
			0.13866666666666675,
			0.64,
			1.0],
			"metallicFactor":1.0,
			"roughnessFactor":1.0
		},
		"emissiveFactor":[0.0,
		0.0,
		0.0],
		"alphaMode":"OPAQUE",
		"doubleSided":true,
		"name":"Mat.1"
	}],
	"animations":[{
		"samplers":[{
			"input":4,
			"interpolation":"LINEAR",
			"output":5
		},
		{
			"input":6,
			"interpolation":"LINEAR",
			"output":7
		},
		{
			"input":8,
			"interpolation":"LINEAR",
			"output":9
		},
		{
			"input":16,
			"interpolation":"LINEAR",
			"output":17
		}],
		"channels":[{
			"sampler":0,
			"target":{
				"node":0,
				"path":"rotation"
			}
		},
		{
			"sampler":1,
			"target":{
				"node":1,
				"path":"translation"
			}
		},
		{
			"sampler":2,
			"target":{
				"node":1,
				"path":"rotation"
			}
		},
		{
			"sampler":3,
			"target":{
				"node":2,
				"path":"weights"
			}
		}]
	}]
}