{
	"samplers":[{
		"magFilter":9729,
		"minFilter":9729,
		"wrapS":10497,
		"wrapT":10497
	},
	{
		"magFilter":9729,
		"minFilter":9729,
		"wrapS":10497,
		"wrapT":10497
	},
	{
		"magFilter":9729,
		"minFilter":9729,
		"wrapS":10497,
		"wrapT":10497
	},
	{
		"magFilter":9729,
		"minFilter":9729,
		"wrapS":10497,
		"wrapT":10497
	},
	{
		"magFilter":9729,
		"minFilter":9729,
		"wrapS":10497,
		"wrapT":10497
	},
	{
		"magFilter":9729,
		"minFilter":9729,
		"wrapS":10497,
		"wrapT":10497
	},
	{
		"magFilter":9729,
		"minFilter":9729,
		"wrapS":10497,
		"wrapT":10497
	}],
	"asset":{
		"version":"2.0",
		"generator":"Maxon Cinema 4D 2024.1.0 (#200000219)"
	},
	"scenes":[{
		"nodes":[0]
	}],
	"bufferViews":[{
		"buffer":0,
		"byteOffset":0,
		"byteLength":520
	},
	{
		"buffer":1,
		"byteOffset":0,
		"byteLength":1248,
		"target":34963
	},
	{
		"buffer":1,
		"byteOffset":1248,
		"byteLength":19968,
		"target":34962,
		"byteStride":32
	},
	{
		"buffer":2,
		"byteOffset":0,
		"byteLength":520
	},
	{
		"buffer":3,
		"byteOffset":0,
		"byteLength":3780,
		"target":34963
	},
	{
		"buffer":3,
		"byteOffset":3780,
		"byteLength":60480,
		"target":34962,
		"byteStride":32
	},
	{
		"buffer":3,
		"byteOffset":64260,
		"byteLength":22680,
		"target":34962
	},
	{
		"buffer":4,
		"byteOffset":0,
		"byteLength":24
	},
	{
		"buffer":5,
		"byteOffset":0,
		"byteLength":504,
		"target":34963
	},
	{
		"buffer":5,
		"byteOffset":504,
		"byteLength":8064,
		"target":34962,
		"byteStride":32
	},
	{
		"buffer":5,
		"byteOffset":8568,
		"byteLength":3024,
		"target":34962
	},
	{
		"buffer":6,
		"byteOffset":0,
		"byteLength":32
	},
	{
		"buffer":7,
		"byteOffset":0,
		"byteLength":504,
		"target":34963
	},
	{
		"buffer":7,
		"byteOffset":504,
		"byteLength":8064,
		"target":34962,
		"byteStride":32
	},
	{
		"buffer":7,
		"byteOffset":8568,
		"byteLength":3024,
		"target":34962
	},
	{
		"buffer":8,
		"byteOffset":0,
		"byteLength":32
	},
	{
		"buffer":9,
		"byteOffset":0,
		"byteLength":72,
		"target":34963
	},
	{
		"buffer":9,
		"byteOffset":72,
		"byteLength":1152,
		"target":34962,
		"byteStride":32
	},
	{
		"buffer":9,
		"byteOffset":1224,
		"byteLength":432,
		"target":34962
	},
	{
		"buffer":10,
		"byteOffset":0,
		"byteLength":32
	},
	{
		"buffer":11,
		"byteOffset":0,
		"byteLength":72,
		"target":34963
	},
	{
		"buffer":11,
		"byteOffset":72,
		"byteLength":1152,
		"target":34962,
		"byteStride":32
	},
	{
		"buffer":11,
		"byteOffset":1224,
		"byteLength":432,
		"target":34962
	},
	{
		"buffer":12,
		"byteOffset":0,
		"byteLength":32
	}],
	"nodes":[{
		"name":"Null",
		"translation":[0.0,
		0.0,
		0.0],
		"rotation":[0.0,
		-0.27315694093704226,
		0.0,
		0.9619694948196411],
		"scale":[1.0,
		1.0,
		1.0],
		"children":[1]
	},
	{
		"name":"Cone",
		"mesh":0,
		"translation":[0.0,
		0.0,
		0.0],
		"rotation":[0.008605624549090863,
		0.014462769031524659,
		0.9460889101028442,
		-0.3234695494174957],
		"scale":[1.0,
		1.0,
		1.0],
		"children":[2,
		3,
		4,
		5,
		6]
	},
	{
		"name":"L",
		"mesh":1,
		"translation":[-1.1885180473327637,
		-5.631266117095947,
		-0.1398298144340515],
		"rotation":[0.7072728872299194,
		0.22726474702358247,
		-0.6110455989837647,
		0.27338436245918276],
		"scale":[1.0,
		1.0,
		1.0]
	},
	{
		"name":"Tube",
		"mesh":2,
		"translation":[0.18289317190647126,
		-2.919116735458374,
		-0.6771201491355896],
		"rotation":[0.7580546140670776,
		-0.02387179620563984,
		-0.6515030264854431,
		-0.01808740198612213],
		"scale":[1.0,
		1.0,
		1.0]
	},
	{
		"name":"Tube.1",
		"mesh":3,
		"translation":[-1.0895830392837525,
		-2.1878926753997804,
		1.1486179828643799],
		"rotation":[0.5368855595588684,
		-0.01450276654213667,
		0.8431232571601868,
		0.026204705238342286],
		"scale":[1.0,
		1.0,
		1.0]
	},
	{
		"name":"Cube.1",
		"mesh":4,
		"translation":[0.7887628078460693,
		-3.924818277359009,
		1.8317513465881348],
		"rotation":[0.5533604621887207,
		0.43961793184280398,
		-0.4814167618751526,
		0.5184266567230225],
		"scale":[1.0,
		1.0,
		1.0]
	},
	{
		"name":"Cube",
		"mesh":5,
		"translation":[-0.37590864300727847,
		-3.835089683532715,
		1.653954029083252],
		"rotation":[0.5533604621887207,
		0.43961793184280398,
		-0.4814167618751526,
		0.5184266567230225],
		"scale":[1.0,
		1.0,
		1.0]
	}],
	"meshes":[{
		"name":"Cone",
		"primitives":[{
			"attributes":{
				"POSITION":3,
				"NORMAL":4,
				"TEXCOORD_0":5
			},
			"indices":2,
			"material":0
		}]
	},
	{
		"name":"L",
		"primitives":[{
			"targets":[{
				"POSITION":12
			}],
			"attributes":{
				"POSITION":9,
				"NORMAL":10,
				"TEXCOORD_0":11
			},
			"indices":8,
			"material":1
		}],
		"extras":{
			"targetNames":["Pose.0"]
		},
		"weights":[1.0]
	},
	{
		"name":"Tube",
		"primitives":[{
			"targets":[{
				"POSITION":19
			}],
			"attributes":{
				"POSITION":16,
				"NORMAL":17,
				"TEXCOORD_0":18
			},
			"indices":15,
			"material":2
		}],
		"extras":{
			"targetNames":["Pose.0"]
		},
		"weights":[1.0]
	},
	{
		"name":"Tube.1",
		"primitives":[{
			"targets":[{
				"POSITION":26
			}],
			"attributes":{
				"POSITION":23,
				"NORMAL":24,
				"TEXCOORD_0":25
			},
			"indices":22,
			"material":3
		}],
		"extras":{
			"targetNames":["Pose.0"]
		},
		"weights":[1.0]
	},
	{
		"name":"Cube.1",
		"primitives":[{
			"targets":[{
				"POSITION":33
			}],
			"attributes":{
				"POSITION":30,
				"NORMAL":31,
				"TEXCOORD_0":32
			},
			"indices":29,
			"material":4
		}],
		"extras":{
			"targetNames":["Pose.0"]
		},
		"weights":[1.0]
	},
	{
		"name":"Cube",
		"primitives":[{
			"targets":[{
				"POSITION":40
			}],
			"attributes":{
				"POSITION":37,
				"NORMAL":38,
				"TEXCOORD_0":39
			},
			"indices":36,
			"material":5
		}],
		"extras":{
			"targetNames":["Pose.0"]
		},
		"weights":[1.0]
	}],
	"accessors":[{
		"max":[0.8333333134651184],
		"bufferView":0,
		"type":"SCALAR",
		"componentType":5126,
		"count":26,
		"byteOffset":0,
		"min":[0.0]
	},
	{
		"max":[0.0,
		-0.024917401373386384,
		0.0,
		0.9982888698577881],
		"bufferView":0,
		"type":"VEC4",
		"componentType":5126,
		"count":26,
		"byteOffset":104,
		"min":[0.0,
		-0.8999217748641968,
		0.0,
		-0.999689519405365]
	},
	{
		"max":[623],
		"bufferView":1,
		"type":"SCALAR",
		"componentType":5123,
		"count":624,
		"byteOffset":0,
		"min":[0]
	},
	{
		"max":[4.22995662689209,
		-0.04839972034096718,
		4.182186126708984],
		"bufferView":2,
		"type":"VEC3",
		"componentType":5126,
		"count":624,
		"byteOffset":0,
		"min":[-4.176114559173584,
		-3.3311314582824709,
		-4.162595748901367]
	},
	{
		"max":[0.615555465221405,
		0.7881238460540772,
		0.6110405921936035],
		"bufferView":2,
		"type":"VEC3",
		"componentType":5126,
		"count":624,
		"byteOffset":12,
		"min":[-0.615555465221405,
		-1.0,
		-0.6110405921936035]
	},
	{
		"max":[0.9984022974967957,
		0.9953163862228394],
		"bufferView":2,
		"type":"VEC2",
		"componentType":5126,
		"count":624,
		"byteOffset":24,
		"min":[0.018727172166109086,
		0.014404330402612687]
	},
	{
		"max":[0.8333333134651184],
		"bufferView":3,
		"type":"SCALAR",
		"componentType":5126,
		"count":26,
		"byteOffset":0,
		"min":[0.0]
	},
	{
		"max":[0.9456614255905151,
		0.32499802112579348,
		0.9462171792984009,
		0.323271244764328],
		"bufferView":3,
		"type":"VEC4",
		"componentType":5126,
		"count":26,
		"byteOffset":104,
		"min":[0.003169513074681163,
		0.004690058063715696,
		-0.9458349943161011,
		-0.3234826326370239]
	},
	{
		"max":[1889],
		"bufferView":4,
		"type":"SCALAR",
		"componentType":5123,
		"count":1890,
		"byteOffset":0,
		"min":[0]
	},
	{
		"max":[1.6304177045822144,
		3.564481735229492,
		1.202944040298462],
		"bufferView":5,
		"type":"VEC3",
		"componentType":5126,
		"count":1890,
		"byteOffset":0,
		"min":[-1.5650947093963624,
		-3.3765833377838136,
		-4.909424304962158]
	},
	{
		"max":[0.9986709356307983,
		0.8435772657394409,
		0.8218308091163635],
		"bufferView":5,
		"type":"VEC3",
		"componentType":5126,
		"count":1890,
		"byteOffset":12,
		"min":[-0.9995188117027283,
		-0.8435829877853394,
		-0.7826995849609375]
	},
	{
		"max":[0.8929075002670288,
		0.9990243911743164],
		"bufferView":5,
		"type":"VEC2",
		"componentType":5126,
		"count":1890,
		"byteOffset":24,
		"min":[0.0003257513453718275,
		0.000325751316267997]
	},
	{
		"max":[0.06281450390815735,
		0.0,
		0.0],
		"bufferView":6,
		"type":"VEC3",
		"componentType":5126,
		"count":1890,
		"byteOffset":0,
		"min":[0.0,
		-3.9689199924468996,
		-4.089362144470215]
	},
	{
		"max":[0.8333333134651184],
		"bufferView":7,
		"type":"SCALAR",
		"componentType":5126,
		"count":3,
		"byteOffset":0,
		"min":[0.0]
	},
	{
		"max":[1.0],
		"bufferView":7,
		"type":"SCALAR",
		"componentType":5126,
		"count":3,
		"byteOffset":12,
		"min":[0.0]
	},
	{
		"max":[251],
		"bufferView":8,
		"type":"SCALAR",
		"componentType":5123,
		"count":252,
		"byteOffset":0,
		"min":[0]
	},
	{
		"max":[1.3444830179214478,
		2.574509382247925,
		0.7113957405090332],
		"bufferView":9,
		"type":"VEC3",
		"componentType":5126,
		"count":252,
		"byteOffset":0,
		"min":[-0.8653265833854675,
		0.8106485605239868,
		-1.332298994064331]
	},
	{
		"max":[0.9939363598823547,
		1.0,
		0.9895825386047363],
		"bufferView":9,
		"type":"VEC3",
		"componentType":5126,
		"count":252,
		"byteOffset":12,
		"min":[-0.9939363598823547,
		-1.0,
		-0.9895825386047363]
	},
	{
		"max":[0.9993498921394348,
		0.6160446405410767],
		"bufferView":9,
		"type":"VEC2",
		"componentType":5126,
		"count":252,
		"byteOffset":24,
		"min":[0.0003255211340729147,
		0.00032552110496908426]
	},
	{
		"max":[0.011152767576277256,
		-1.6091254949569703,
		0.06188447028398514],
		"bufferView":10,
		"type":"VEC3",
		"componentType":5126,
		"count":252,
		"byteOffset":0,
		"min":[0.0009884960018098355,
		-3.2765467166900636,
		0.050321806222200397]
	},
	{
		"max":[0.8333333134651184],
		"bufferView":11,
		"type":"SCALAR",
		"componentType":5126,
		"count":4,
		"byteOffset":0,
		"min":[0.0]
	},
	{
		"max":[1.0],
		"bufferView":11,
		"type":"SCALAR",
		"componentType":5126,
		"count":4,
		"byteOffset":16,
		"min":[0.0]
	},
	{
		"max":[251],
		"bufferView":12,
		"type":"SCALAR",
		"componentType":5123,
		"count":252,
		"byteOffset":0,
		"min":[0]
	},
	{
		"max":[1.3444830179214478,
		2.574509382247925,
		0.7113957405090332],
		"bufferView":13,
		"type":"VEC3",
		"componentType":5126,
		"count":252,
		"byteOffset":0,
		"min":[-0.8653265833854675,
		0.8106485605239868,
		-1.332298994064331]
	},
	{
		"max":[0.9954413175582886,
		1.0,
		0.9952681660652161],
		"bufferView":13,
		"type":"VEC3",
		"componentType":5126,
		"count":252,
		"byteOffset":12,
		"min":[-0.9954413175582886,
		-1.0,
		-0.9952681660652161]
	},
	{
		"max":[0.9993498921394348,
		0.6160446405410767],
		"bufferView":13,
		"type":"VEC2",
		"componentType":5126,
		"count":252,
		"byteOffset":24,
		"min":[0.0003255211340729147,
		0.00032552110496908426]
	},
	{
		"max":[-0.00466999551281333,
		-0.5529329180717468,
		-0.00010078894410980865],
		"bufferView":14,
		"type":"VEC3",
		"componentType":5126,
		"count":252,
		"byteOffset":0,
		"min":[-0.01629568450152874,
		-2.1790144443511965,
		-0.004189119674265385]
	},
	{
		"max":[0.8333333134651184],
		"bufferView":15,
		"type":"SCALAR",
		"componentType":5126,
		"count":4,
		"byteOffset":0,
		"min":[0.0]
	},
	{
		"max":[1.0],
		"bufferView":15,
		"type":"SCALAR",
		"componentType":5126,
		"count":4,
		"byteOffset":16,
		"min":[0.0]
	},
	{
		"max":[35],
		"bufferView":16,
		"type":"SCALAR",
		"componentType":5123,
		"count":36,
		"byteOffset":0,
		"min":[0]
	},
	{
		"max":[0.07500000298023224,
		0.5950000286102295,
		3.424999952316284],
		"bufferView":17,
		"type":"VEC3",
		"componentType":5126,
		"count":36,
		"byteOffset":0,
		"min":[-0.07500000298023224,
		-0.5950000286102295,
		-2.1634202003479006]
	},
	{
		"max":[0.9935621619224548,
		0.9781618714332581,
		1.0],
		"bufferView":17,
		"type":"VEC3",
		"componentType":5126,
		"count":36,
		"byteOffset":12,
		"min":[-0.9935876131057739,
		-0.9956747889518738,
		-0.9789507985115051]
	},
	{
		"max":[0.9993498921394348,
		0.739808201789856],
		"bufferView":17,
		"type":"VEC2",
		"componentType":5126,
		"count":36,
		"byteOffset":24,
		"min":[0.0003255211340729147,
		0.00032552110496908426]
	},
	{
		"max":[0.05033963546156883,
		0.0,
		0.0],
		"bufferView":18,
		"type":"VEC3",
		"componentType":5126,
		"count":36,
		"byteOffset":0,
		"min":[0.0,
		-0.041272953152656558,
		-5.146100044250488]
	},
	{
		"max":[0.8333333134651184],
		"bufferView":19,
		"type":"SCALAR",
		"componentType":5126,
		"count":4,
		"byteOffset":0,
		"min":[0.0]
	},
	{
		"max":[1.0],
		"bufferView":19,
		"type":"SCALAR",
		"componentType":5126,
		"count":4,
		"byteOffset":16,
		"min":[0.0]
	},
	{
		"max":[35],
		"bufferView":20,
		"type":"SCALAR",
		"componentType":5123,
		"count":36,
		"byteOffset":0,
		"min":[0]
	},
	{
		"max":[0.07500000298023224,
		0.07500000298023224,
		3.424999952316284],
		"bufferView":21,
		"type":"VEC3",
		"componentType":5126,
		"count":36,
		"byteOffset":0,
		"min":[-0.07500000298023224,
		-0.07500000298023224,
		-2.1488654613494875]
	},
	{
		"max":[0.9753686189651489,
		0.9999872446060181,
		1.0],
		"bufferView":21,
		"type":"VEC3",
		"componentType":5126,
		"count":36,
		"byteOffset":12,
		"min":[-0.9812964200973511,
		-0.9999933242797852,
		-0.8656409382820129]
	},
	{
		"max":[0.9993498921394348,
		0.32415610551834109],
		"bufferView":21,
		"type":"VEC2",
		"componentType":5126,
		"count":36,
		"byteOffset":24,
		"min":[0.0003255211340729147,
		0.00032552110496908426]
	},
	{
		"max":[0.06074250489473343,
		0.0,
		0.0],
		"bufferView":22,
		"type":"VEC3",
		"componentType":5126,
		"count":36,
		"byteOffset":0,
		"min":[0.0,
		-0.0011321008205413819,
		-5.26425313949585]
	},
	{
		"max":[0.8333333134651184],
		"bufferView":23,
		"type":"SCALAR",
		"componentType":5126,
		"count":4,
		"byteOffset":0,
		"min":[0.0]
	},
	{
		"max":[1.0],
		"bufferView":23,
		"type":"SCALAR",
		"componentType":5126,
		"count":4,
		"byteOffset":16,
		"min":[0.0]
	}],
	"buffers":[{
		"uri":"data:application/octet-stream;base64,",
		"byteLength":520
	},
	{
		"uri":"data:application/octet-stream;base64,",
		"byteLength":21216
	},
	{
		"uri":"data:application/octet-stream;base64,",
		"byteLength":520
	},
	{
		"uri":"data:application/octet-stream;base64,",
		"byteLength":86940
	},
	{
		"uri":"data:application/octet-stream;base64,",
		"byteLength":24
	},
	{
		"uri":"data:application/octet-stream;base64,",
		"byteLength":11592
	},
	{
		"uri":"data:application/octet-stream;base64,",
		"byteLength":32
	},
	{
		"uri":"data:application/octet-stream;base64,",
		"byteLength":11592
	},
	{
		"uri":"data:application/octet-stream;base64,",
		"byteLength":32
	},
	{
		"uri":"data:application/octet-stream;base64,",
		"byteLength":1656
	},
	{
		"uri":"data:application/octet-stream;base64,",
		"byteLength":32
	},
	{
		"uri":"data:application/octet-stream;base64,",
		"byteLength":1656
	},
	{
		"uri":"data:application/octet-stream;base64,",
		"byteLength":32
	}],
	"images":[{
		"uri":"data:image/jpeg;base64,"
	},
	{
		"uri":"data:image/jpeg;base64,"
	},
	{
		"uri":"data:image/jpeg;base64,"
	},
	{
		"uri":"data:image/jpeg;base64,"
	},
	{
		"uri":"data:image/jpeg;base64,"
	},
	{
		"uri":"data:image/jpeg;base64,"
	},
	{
		"uri":"data:image/jpeg;base64,"
	}],
	"textures":[{
		"sampler":0,
		"source":0
	},
	{
		"sampler":1,
		"source":1
	},
	{
		"sampler":2,
		"source":2
	},
	{
		"sampler":3,
		"source":3
	},
	{
		"sampler":4,
		"source":4
	},
	{
		"sampler":5,
		"source":5
	},
	{
		"sampler":6,
		"source":6
	}],
	"materials":[{
		"pbrMetallicRoughness":{
			"baseColorTexture":{
				"index":0
			},
			"baseColorFactor":[1.0,
			1.0,
			1.0,
			1.0],
			"metallicFactor":1.0,
			"roughnessFactor":1.0
		},
		"normalTexture":{
			"index":1,
			"scale":0.5
		},
		"emissiveFactor":[0.0,
		0.0,
		0.0],
		"name":"Mat.3",
		"alphaMode":"OPAQUE",
		"doubleSided":true
	},
	{
		"pbrMetallicRoughness":{
			"baseColorTexture":{
				"index":2
			},
			"baseColorFactor":[1.0,
			1.0,
			1.0,
			1.0],
			"metallicFactor":1.0,
			"roughnessFactor":1.0
		},
		"emissiveFactor":[0.0,
		0.0,
		0.0],
		"name":"Mat.8",
		"alphaMode":"OPAQUE",
		"doubleSided":true
	},
	{
		"pbrMetallicRoughness":{
			"baseColorTexture":{
				"index":3
			},
			"baseColorFactor":[1.0,
			1.0,
			1.0,
			1.0],
			"metallicFactor":1.0,
			"roughnessFactor":1.0
		},
		"emissiveFactor":[0.0,
		0.0,
		0.0],
		"name":"Mat.7",
		"alphaMode":"OPAQUE",
		"doubleSided":true
	},
	{
		"pbrMetallicRoughness":{
			"baseColorTexture":{
				"index":4
			},
			"baseColorFactor":[1.0,
			1.0,
			1.0,
			1.0],
			"metallicFactor":1.0,
			"roughnessFactor":1.0
		},
		"emissiveFactor":[0.0,
		0.0,
		0.0],
		"name":"Mat.6",
		"alphaMode":"OPAQUE",
		"doubleSided":true
	},
	{
		"pbrMetallicRoughness":{
			"baseColorTexture":{
				"index":5
			},
			"baseColorFactor":[1.0,
			1.0,
			1.0,
			1.0],
			"metallicFactor":1.0,
			"roughnessFactor":1.0
		},
		"emissiveFactor":[0.0,
		0.0,
		0.0],
		"name":"Mat.4",
		"alphaMode":"OPAQUE",
		"doubleSided":true
	},
	{
		"pbrMetallicRoughness":{
			"baseColorTexture":{
				"index":6
			},
			"baseColorFactor":[1.0,
			1.0,
			1.0,
			1.0],
			"metallicFactor":1.0,
			"roughnessFactor":1.0
		},
		"emissiveFactor":[0.0,
		0.0,
		0.0],
		"name":"Mat.5",
		"alphaMode":"OPAQUE",
		"doubleSided":true
	}],
	"animations":[{
		"samplers":[{
			"input":0,
			"output":1,
			"interpolation":"LINEAR"
		},
		{
			"input":6,
			"output":7,
			"interpolation":"LINEAR"
		},
		{
			"input":13,
			"output":14,
			"interpolation":"LINEAR"
		},
		{
			"input":20,
			"output":21,
			"interpolation":"LINEAR"
		},
		{
			"input":27,
			"output":28,
			"interpolation":"LINEAR"
		},
		{
			"input":34,
			"output":35,
			"interpolation":"LINEAR"
		},
		{
			"input":41,
			"output":42,
			"interpolation":"LINEAR"
		}],
		"channels":[{
			"sampler":0,
			"target":{
				"node":0,
				"path":"rotation"
			}
		},
		{
			"sampler":1,
			"target":{
				"node":1,
				"path":"rotation"
			}
		},
		{
			"sampler":2,
			"target":{
				"node":2,
				"path":"weights"
			}
		},
		{
			"sampler":3,
			"target":{
				"node":3,
				"path":"weights"
			}
		},
		{
			"sampler":4,
			"target":{
				"node":4,
				"path":"weights"
			}
		},
		{
			"sampler":5,
			"target":{
				"node":5,
				"path":"weights"
			}
		},
		{
			"sampler":6,
			"target":{
				"node":6,
				"path":"weights"
			}
		}]
	}]
}