{
	"asset":{
		"version":"2.0",
		"generator":"Maxon Cinema 4D 2024.1.0 (#200000219)"
	},
	"scenes":[{
		"nodes":[0]
	}],
	"meshes":[{
		"name":"LEafhead",
		"primitives":[{
			"attributes":{
				"POSITION":1,
				"NORMAL":2,
				"TEXCOORD_0":3
			},
			"indices":0,
			"material":0
		}]
	},
	{
		"weights":[1.0],
		"name":"Pot",
		"primitives":[{
			"targets":[{
				"POSITION":12
			}],
			"attributes":{
				"POSITION":9,
				"NORMAL":10,
				"TEXCOORD_0":11
			},
			"indices":8,
			"material":1
		}],
		"extras":{
			"targetNames":["Pose.0"]
		}
	},
	{
		"weights":[1.0],
		"name":"Lathe",
		"primitives":[{
			"targets":[{
				"POSITION":19
			}],
			"attributes":{
				"POSITION":16,
				"NORMAL":17,
				"TEXCOORD_0":18
			},
			"indices":15,
			"material":2
		}],
		"extras":{
			"targetNames":["Pose.0"]
		}
	},
	{
		"weights":[1.0],
		"name":"Text",
		"primitives":[{
			"targets":[{
				"POSITION":28
			}],
			"attributes":{
				"POSITION":25,
				"NORMAL":26,
				"TEXCOORD_0":27
			},
			"indices":24,
			"material":3
		}],
		"extras":{
			"targetNames":["Pose.0"]
		}
	},
	{
		"weights":[1.0],
		"name":"Ruler",
		"primitives":[{
			"targets":[{
				"POSITION":37
			}],
			"attributes":{
				"POSITION":34,
				"NORMAL":35,
				"TEXCOORD_0":36
			},
			"indices":33,
			"material":4
		}],
		"extras":{
			"targetNames":["Pose.0"]
		}
	},
	{
		"weights":[1.0],
		"name":"Pencil",
		"primitives":[{
			"targets":[{
				"POSITION":46
			}],
			"attributes":{
				"POSITION":43,
				"NORMAL":44,
				"TEXCOORD_0":45
			},
			"indices":42,
			"material":5
		}],
		"extras":{
			"targetNames":["Pose.0"]
		}
	},
	{
		"weights":[1.0],
		"name":"Cursor",
		"primitives":[{
			"targets":[{
				"POSITION":55
			}],
			"attributes":{
				"POSITION":52,
				"NORMAL":53,
				"TEXCOORD_0":54
			},
			"indices":51,
			"material":6
		}],
		"extras":{
			"targetNames":["Pose.0"]
		}
	}],
	"nodes":[{
		"name":"LEafhead",
		"mesh":0,
		"translation":[0.1947319209575653,
		3.1678426265716554,
		-0.13948160409927369],
		"rotation":[4.7515850541029248e-15,
		1.0,
		0.000031883868359727788,
		-1.4518691804354945e-10],
		"scale":[1.0,
		1.0,
		1.0],
		"children":[1,
		2,
		3,
		4,
		5,
		6]
	},
	{
		"name":"Pot",
		"mesh":1,
		"translation":[1.0069847106933594,
		-4.236622333526611,
		2.0431089401245119],
		"rotation":[0.28552839159965517,
		-0.2735873758792877,
		0.8667003512382507,
		0.30406248569488528],
		"scale":[2.0,
		2.0,
		2.0]
	},
	{
		"name":"Lathe",
		"mesh":2,
		"translation":[-1.2343887090682984,
		-3.7444629669189455,
		1.8968822956085206],
		"rotation":[0.10230734944343567,
		-0.3314448595046997,
		0.8961890339851379,
		0.27662739157676699],
		"scale":[1.0,
		1.0,
		1.0]
	},
	{
		"name":"Text",
		"mesh":3,
		"translation":[-0.16778670251369477,
		-4.4611077308654789,
		-2.0267746448516847],
		"rotation":[1.793264564620145e-10,
		-0.34687530994415285,
		0.9379112720489502,
		6.632170507225865e-11],
		"scale":[1.0,
		1.0,
		1.0]
	},
	{
		"name":"Ruler",
		"mesh":4,
		"translation":[-0.060254670679569247,
		-4.340085983276367,
		0.5410657525062561],
		"rotation":[0.4195515513420105,
		0.6199349164962769,
		-0.11688274890184403,
		0.6526833772659302],
		"scale":[1.0,
		1.0,
		1.0]
	},
	{
		"name":"Pencil",
		"mesh":5,
		"translation":[-0.9776641130447388,
		-3.4981231689453127,
		1.815485954284668],
		"rotation":[0.1830892264842987,
		0.4380876123905182,
		-0.8459049463272095,
		-0.24290403723716737],
		"scale":[0.6000000238418579,
		0.6000000238418579,
		0.6000000238418579]
	},
	{
		"name":"Cursor",
		"mesh":6,
		"translation":[1.371820092201233,
		-5.9509100914001469,
		2.6884379386901857],
		"rotation":[-0.1269109696149826,
		0.6764853596687317,
		-0.553495466709137,
		-0.4689391255378723],
		"scale":[1.0,
		1.0,
		1.0]
	}],
	"accessors":[{
		"bufferView":0,
		"count":2160,
		"type":"SCALAR",
		"componentType":5123,
		"byteOffset":0,
		"min":[0],
		"max":[2159]
	},
	{
		"bufferView":1,
		"count":2160,
		"type":"VEC3",
		"componentType":5126,
		"byteOffset":0,
		"min":[-4.010000228881836,
		-2.997133493423462,
		-4.010000228881836],
		"max":[4.010000228881836,
		0.4008290469646454,
		4.010000228881836]
	},
	{
		"bufferView":1,
		"count":2160,
		"type":"VEC3",
		"componentType":5126,
		"byteOffset":12,
		"min":[-0.8007007241249085,
		-1.0,
		-0.7908424139022827],
		"max":[0.6384595036506653,
		1.0,
		0.7908424139022827]
	},
	{
		"bufferView":1,
		"count":2160,
		"type":"VEC2",
		"componentType":5126,
		"byteOffset":24,
		"min":[0.018627876415848733,
		0.016340993344783784],
		"max":[0.9801331758499146,
		0.9811286926269531]
	},
	{
		"bufferView":2,
		"count":26,
		"type":"SCALAR",
		"componentType":5126,
		"byteOffset":0,
		"min":[0.0],
		"max":[0.8333333134651184]
	},
	{
		"bufferView":2,
		"count":26,
		"type":"VEC3",
		"componentType":5126,
		"byteOffset":104,
		"min":[0.1947319209575653,
		0.4125996530056,
		-0.13948160409927369],
		"max":[0.1947319209575653,
		5.787308692932129,
		-0.13948160409927369]
	},
	{
		"bufferView":3,
		"count":26,
		"type":"SCALAR",
		"componentType":5126,
		"byteOffset":0,
		"min":[0.0],
		"max":[0.8333333134651184]
	},
	{
		"bufferView":3,
		"count":26,
		"type":"VEC4",
		"componentType":5126,
		"byteOffset":104,
		"min":[-1.005681163346317e-10,
		-0.6630062460899353,
		-0.6926809549331665,
		-1.4518691804354945e-10],
		"max":[1.361724760728933e-10,
		1.0,
		0.9379112720489502,
		9.625982649863474e-11]
	},
	{
		"bufferView":4,
		"count":1650,
		"type":"SCALAR",
		"componentType":5123,
		"byteOffset":0,
		"min":[0],
		"max":[1649]
	},
	{
		"bufferView":5,
		"count":1650,
		"type":"VEC3",
		"componentType":5126,
		"byteOffset":0,
		"min":[-0.5199999809265137,
		-0.014852155931293965,
		-0.5199999809265137],
		"max":[0.7258141040802002,
		1.402732491493225,
		0.5199999809265137]
	},
	{
		"bufferView":5,
		"count":1650,
		"type":"VEC3",
		"componentType":5126,
		"byteOffset":12,
		"min":[-0.9694325923919678,
		-1.0,
		-0.9694325923919678],
		"max":[0.9694325923919678,
		0.9984387159347534,
		0.9762919545173645]
	},
	{
		"bufferView":5,
		"count":1650,
		"type":"VEC2",
		"componentType":5126,
		"byteOffset":24,
		"min":[0.0003257723292335868,
		0.0003257723292335868],
		"max":[0.9990243911743164,
		0.9748566150665283]
	},
	{
		"bufferView":6,
		"count":1650,
		"type":"VEC3",
		"componentType":5126,
		"byteOffset":0,
		"min":[-0.7257415652275086,
		-1.4025921821594239,
		-0.5199480056762695],
		"max":[0.5199480056762695,
		0.014850671403110028,
		0.5199480056762695]
	},
	{
		"bufferView":7,
		"count":4,
		"type":"SCALAR",
		"componentType":5126,
		"byteOffset":0,
		"min":[0.0],
		"max":[0.8333333134651184]
	},
	{
		"bufferView":7,
		"count":4,
		"type":"SCALAR",
		"componentType":5126,
		"byteOffset":16,
		"min":[0.0],
		"max":[1.0]
	},
	{
		"bufferView":8,
		"count":3672,
		"type":"SCALAR",
		"componentType":5123,
		"byteOffset":0,
		"min":[0],
		"max":[3671]
	},
	{
		"bufferView":9,
		"count":3672,
		"type":"VEC3",
		"componentType":5126,
		"byteOffset":0,
		"min":[-0.3551030158996582,
		0.018010461702942849,
		-0.37625187635421755],
		"max":[0.44566670060157778,
		6.904180526733398,
		0.3758610486984253]
	},
	{
		"bufferView":9,
		"count":3672,
		"type":"VEC3",
		"componentType":5126,
		"byteOffset":12,
		"min":[-0.9996934533119202,
		-0.9998608231544495,
		-0.9995551109313965],
		"max":[0.9995309114456177,
		0.9998123645782471,
		0.9995309114456177]
	},
	{
		"bufferView":9,
		"count":3672,
		"type":"VEC2",
		"componentType":5126,
		"byteOffset":24,
		"min":[0.000325586530379951,
		0.000325586530379951],
		"max":[0.9990243911743164,
		0.8516635894775391]
	},
	{
		"bufferView":10,
		"count":3672,
		"type":"VEC3",
		"componentType":5126,
		"byteOffset":0,
		"min":[-0.44562214612960818,
		-6.90349006652832,
		-0.3758234679698944],
		"max":[0.35506749153137209,
		-0.018008660525083543,
		0.37621426582336428]
	},
	{
		"bufferView":11,
		"count":26,
		"type":"SCALAR",
		"componentType":5126,
		"byteOffset":0,
		"min":[0.0],
		"max":[0.8333333134651184]
	},
	{
		"bufferView":11,
		"count":26,
		"type":"VEC4",
		"componentType":5126,
		"byteOffset":104,
		"min":[-0.022743484005331994,
		-0.3314448595046997,
		0.8961890339851379,
		0.27662739157676699],
		"max":[0.10230734944343567,
		0.07368201017379761,
		0.955514669418335,
		0.29493945837020876]
	},
	{
		"bufferView":12,
		"count":4,
		"type":"SCALAR",
		"componentType":5126,
		"byteOffset":0,
		"min":[0.0],
		"max":[0.8333333134651184]
	},
	{
		"bufferView":12,
		"count":4,
		"type":"SCALAR",
		"componentType":5126,
		"byteOffset":16,
		"min":[0.0],
		"max":[1.0]
	},
	{
		"bufferView":13,
		"count":348,
		"type":"SCALAR",
		"componentType":5123,
		"byteOffset":0,
		"min":[0],
		"max":[347]
	},
	{
		"bufferView":14,
		"count":348,
		"type":"VEC3",
		"componentType":5126,
		"byteOffset":0,
		"min":[-1.5171655416488648,
		-0.01070911530405283,
		-0.16043084859848023],
		"max":[1.4828344583511353,
		2.989290952682495,
		0.13983841240406037]
	},
	{
		"bufferView":14,
		"count":348,
		"type":"VEC3",
		"componentType":5126,
		"byteOffset":12,
		"min":[-1.0,
		-1.0,
		-1.0],
		"max":[1.0,
		1.0,
		1.0]
	},
	{
		"bufferView":14,
		"count":348,
		"type":"VEC2",
		"componentType":5126,
		"byteOffset":24,
		"min":[0.0003255567280575633,
		0.0003255567280575633],
		"max":[0.9990243911743164,
		0.7763208150863648]
	},
	{
		"bufferView":15,
		"count":348,
		"type":"VEC3",
		"componentType":5126,
		"byteOffset":0,
		"min":[-1.482686161994934,
		-2.9889919757843019,
		-0.13982442021369935],
		"max":[1.5170139074325562,
		0.010708045214414597,
		0.16041481494903565]
	},
	{
		"bufferView":16,
		"count":26,
		"type":"SCALAR",
		"componentType":5126,
		"byteOffset":0,
		"min":[0.0],
		"max":[0.8333333134651184]
	},
	{
		"bufferView":16,
		"count":26,
		"type":"VEC3",
		"componentType":5126,
		"byteOffset":104,
		"min":[-2.0254476070404054,
		-5.445182800292969,
		-2.0267746448516847],
		"max":[-0.16778670251369477,
		-4.4611077308654789,
		-1.4474377632141114]
	},
	{
		"bufferView":17,
		"count":4,
		"type":"SCALAR",
		"componentType":5126,
		"byteOffset":0,
		"min":[0.0],
		"max":[0.8333333134651184]
	},
	{
		"bufferView":17,
		"count":4,
		"type":"SCALAR",
		"componentType":5126,
		"byteOffset":16,
		"min":[0.0],
		"max":[1.0]
	},
	{
		"bufferView":18,
		"count":72,
		"type":"SCALAR",
		"componentType":5123,
		"byteOffset":0,
		"min":[0],
		"max":[71]
	},
	{
		"bufferView":19,
		"count":72,
		"type":"VEC3",
		"componentType":5126,
		"byteOffset":0,
		"min":[-0.0544363297522068,
		-0.11115777492523194,
		-4.006662845611572],
		"max":[5.945563793182373,
		7.899400678731635e-16,
		-0.006662727799266577]
	},
	{
		"bufferView":19,
		"count":72,
		"type":"VEC3",
		"componentType":5126,
		"byteOffset":12,
		"min":[-0.7999886870384216,
		-0.999990701675415,
		-1.0],
		"max":[0.7999886870384216,
		0.9999979734420776,
		1.0]
	},
	{
		"bufferView":19,
		"count":72,
		"type":"VEC2",
		"componentType":5126,
		"byteOffset":24,
		"min":[0.0003255211340729147,
		0.00032552110496908426],
		"max":[0.9993498921394348,
		0.48449456691741946]
	},
	{
		"bufferView":20,
		"count":72,
		"type":"VEC3",
		"componentType":5126,
		"byteOffset":0,
		"min":[-5.944969177246094,
		-1.6473696034011816e-15,
		0.006662061437964439],
		"max":[0.05443088710308075,
		0.11114665865898133,
		4.006261825561523]
	},
	{
		"bufferView":21,
		"count":26,
		"type":"SCALAR",
		"componentType":5126,
		"byteOffset":0,
		"min":[0.0],
		"max":[0.8333333134651184]
	},
	{
		"bufferView":21,
		"count":26,
		"type":"VEC4",
		"componentType":5126,
		"byteOffset":104,
		"min":[0.4195515513420105,
		-0.26941564679145815,
		-0.5856523513793945,
		0.3194948434829712],
		"max":[0.7179284691810608,
		0.6199349164962769,
		-0.11688274890184403,
		0.6545628309249878]
	},
	{
		"bufferView":22,
		"count":4,
		"type":"SCALAR",
		"componentType":5126,
		"byteOffset":0,
		"min":[0.0],
		"max":[0.8333333134651184]
	},
	{
		"bufferView":22,
		"count":4,
		"type":"SCALAR",
		"componentType":5126,
		"byteOffset":16,
		"min":[0.0],
		"max":[1.0]
	},
	{
		"bufferView":23,
		"count":660,
		"type":"SCALAR",
		"componentType":5123,
		"byteOffset":0,
		"min":[0],
		"max":[659]
	},
	{
		"bufferView":24,
		"count":660,
		"type":"VEC3",
		"componentType":5126,
		"byteOffset":0,
		"min":[-0.5421715378761292,
		-0.025502068921923639,
		-0.5156357884407044],
		"max":[0.5421715378761292,
		9.323862075805664,
		0.5156357884407044]
	},
	{
		"bufferView":24,
		"count":660,
		"type":"VEC3",
		"componentType":5126,
		"byteOffset":12,
		"min":[-0.9999964237213135,
		-0.9999571442604065,
		-0.9510648250579834],
		"max":[0.9999964237213135,
		0.9657728672027588,
		0.9510648250579834]
	},
	{
		"bufferView":24,
		"count":660,
		"type":"VEC2",
		"componentType":5126,
		"byteOffset":24,
		"min":[0.0006510441307909787,
		0.0006510440725833178],
		"max":[0.9987017512321472,
		0.6363925933837891]
	},
	{
		"bufferView":25,
		"count":660,
		"type":"VEC3",
		"componentType":5126,
		"byteOffset":0,
		"min":[-0.5421173572540283,
		-9.322929382324219,
		-0.5155842304229736],
		"max":[0.5421173572540283,
		0.02549951896071434,
		0.5155842304229736]
	},
	{
		"bufferView":26,
		"count":26,
		"type":"SCALAR",
		"componentType":5126,
		"byteOffset":0,
		"min":[0.0],
		"max":[0.8333333134651184]
	},
	{
		"bufferView":26,
		"count":26,
		"type":"VEC4",
		"componentType":5126,
		"byteOffset":104,
		"min":[0.1830892264842987,
		-0.3345932960510254,
		-0.9247859120368958,
		-0.24290403723716737],
		"max":[0.3596247732639313,
		0.4380876123905182,
		-0.8459049463272095,
		-0.02677811123430729]
	},
	{
		"bufferView":27,
		"count":4,
		"type":"SCALAR",
		"componentType":5126,
		"byteOffset":0,
		"min":[0.0],
		"max":[0.8333333134651184]
	},
	{
		"bufferView":27,
		"count":4,
		"type":"SCALAR",
		"componentType":5126,
		"byteOffset":16,
		"min":[0.0],
		"max":[1.0]
	},
	{
		"bufferView":28,
		"count":156,
		"type":"SCALAR",
		"componentType":5123,
		"byteOffset":0,
		"min":[0],
		"max":[155]
	},
	{
		"bufferView":29,
		"count":156,
		"type":"VEC3",
		"componentType":5126,
		"byteOffset":0,
		"min":[-0.8199099898338318,
		0.04917779937386513,
		-0.3682510256767273],
		"max":[0.8199099898338318,
		3.4257702827453615,
		0.0]
	},
	{
		"bufferView":29,
		"count":156,
		"type":"VEC3",
		"componentType":5126,
		"byteOffset":12,
		"min":[-1.0,
		-1.0,
		-1.0],
		"max":[1.0,
		0.4188798666000366,
		1.0]
	},
	{
		"bufferView":29,
		"count":156,
		"type":"VEC2",
		"componentType":5126,
		"byteOffset":24,
		"min":[0.0003255211340729147,
		0.00032552110496908426],
		"max":[0.9993498921394348,
		0.9993351697921753]
	},
	{
		"bufferView":30,
		"count":156,
		"type":"VEC3",
		"componentType":5126,
		"byteOffset":0,
		"min":[-0.8198279738426209,
		-3.4254276752471926,
		-1.7789027292721213e-16],
		"max":[0.8198279738426209,
		-0.04917288199067116,
		0.3682141900062561]
	},
	{
		"bufferView":31,
		"count":26,
		"type":"SCALAR",
		"componentType":5126,
		"byteOffset":0,
		"min":[0.0],
		"max":[0.8333333134651184]
	},
	{
		"bufferView":31,
		"count":26,
		"type":"VEC3",
		"componentType":5126,
		"byteOffset":104,
		"min":[1.371820092201233,
		-6.967345237731934,
		2.6884379386901857],
		"max":[3.349364757537842,
		-5.9509100914001469,
		4.491414546966553]
	},
	{
		"bufferView":32,
		"count":4,
		"type":"SCALAR",
		"componentType":5126,
		"byteOffset":0,
		"min":[0.0],
		"max":[0.8333333134651184]
	},
	{
		"bufferView":32,
		"count":4,
		"type":"SCALAR",
		"componentType":5126,
		"byteOffset":16,
		"min":[0.0],
		"max":[1.0]
	}],
	"bufferViews":[{
		"buffer":0,
		"byteOffset":0,
		"byteLength":4320,
		"target":34963
	},
	{
		"buffer":0,
		"byteStride":32,
		"byteOffset":4320,
		"byteLength":69120,
		"target":34962
	},
	{
		"buffer":1,
		"byteOffset":0,
		"byteLength":416
	},
	{
		"buffer":1,
		"byteOffset":416,
		"byteLength":520
	},
	{
		"buffer":2,
		"byteOffset":0,
		"byteLength":3300,
		"target":34963
	},
	{
		"buffer":2,
		"byteStride":32,
		"byteOffset":3300,
		"byteLength":52800,
		"target":34962
	},
	{
		"buffer":2,
		"byteOffset":56100,
		"byteLength":19800,
		"target":34962
	},
	{
		"buffer":3,
		"byteOffset":0,
		"byteLength":32
	},
	{
		"buffer":4,
		"byteOffset":0,
		"byteLength":7344,
		"target":34963
	},
	{
		"buffer":4,
		"byteStride":32,
		"byteOffset":7344,
		"byteLength":117504,
		"target":34962
	},
	{
		"buffer":4,
		"byteOffset":124848,
		"byteLength":44064,
		"target":34962
	},
	{
		"buffer":5,
		"byteOffset":0,
		"byteLength":520
	},
	{
		"buffer":5,
		"byteOffset":520,
		"byteLength":32
	},
	{
		"buffer":6,
		"byteOffset":0,
		"byteLength":696,
		"target":34963
	},
	{
		"buffer":6,
		"byteStride":32,
		"byteOffset":696,
		"byteLength":11136,
		"target":34962
	},
	{
		"buffer":6,
		"byteOffset":11832,
		"byteLength":4176,
		"target":34962
	},
	{
		"buffer":7,
		"byteOffset":0,
		"byteLength":416
	},
	{
		"buffer":7,
		"byteOffset":416,
		"byteLength":32
	},
	{
		"buffer":8,
		"byteOffset":0,
		"byteLength":144,
		"target":34963
	},
	{
		"buffer":8,
		"byteStride":32,
		"byteOffset":144,
		"byteLength":2304,
		"target":34962
	},
	{
		"buffer":8,
		"byteOffset":2448,
		"byteLength":864,
		"target":34962
	},
	{
		"buffer":9,
		"byteOffset":0,
		"byteLength":520
	},
	{
		"buffer":9,
		"byteOffset":520,
		"byteLength":32
	},
	{
		"buffer":10,
		"byteOffset":0,
		"byteLength":1320,
		"target":34963
	},
	{
		"buffer":10,
		"byteStride":32,
		"byteOffset":1320,
		"byteLength":21120,
		"target":34962
	},
	{
		"buffer":10,
		"byteOffset":22440,
		"byteLength":7920,
		"target":34962
	},
	{
		"buffer":11,
		"byteOffset":0,
		"byteLength":520
	},
	{
		"buffer":11,
		"byteOffset":520,
		"byteLength":32
	},
	{
		"buffer":12,
		"byteOffset":0,
		"byteLength":312,
		"target":34963
	},
	{
		"buffer":12,
		"byteStride":32,
		"byteOffset":312,
		"byteLength":4992,
		"target":34962
	},
	{
		"buffer":12,
		"byteOffset":5304,
		"byteLength":1872,
		"target":34962
	},
	{
		"buffer":13,
		"byteOffset":0,
		"byteLength":416
	},
	{
		"buffer":13,
		"byteOffset":416,
		"byteLength":32
	}],
	"buffers":[{
		"uri":"data:application/octet-stream;base64,",
		"byteLength":73440
	},
	{
		"uri":"data:application/octet-stream;base64,",
		"byteLength":936
	},
	{
		"uri":"data:application/octet-stream;base64,",
		"byteLength":75900
	},
	{
		"uri":"data:application/octet-stream;base64,",
		"byteLength":32
	},
	{
		"uri":"data:application/octet-stream;base64,",
		"byteLength":168912
	},
	{
		"uri":"data:application/octet-stream;base64,",
		"byteLength":552
	},
	{
		"uri":"data:application/octet-stream;base64,",
		"byteLength":16008
	},
	{
		"uri":"data:application/octet-stream;base64,",
		"byteLength":448
	},
	{
		"uri":"data:application/octet-stream;base64,",
		"byteLength":3312
	},
	{
		"uri":"data:application/octet-stream;base64,",
		"byteLength":552
	},
	{
		"uri":"data:application/octet-stream;base64,",
		"byteLength":30360
	},
	{
		"uri":"data:application/octet-stream;base64,",
		"byteLength":552
	},
	{
		"uri":"data:application/octet-stream;base64,",
		"byteLength":7176
	},
	{
		"uri":"data:application/octet-stream;base64,",
		"byteLength":448
	}],
	"images":[{
		"uri":"data:image/jpeg;base64,"
	},
	{
		"uri":"data:image/jpeg;base64,"
	},
	{
		"uri":"data:image/jpeg;base64,"
	},
	{
		"uri":"data:image/jpeg;base64,"
	},
	{
		"uri":"data:image/jpeg;base64,"
	},
	{
		"uri":"data:image/jpeg;base64,"
	},
	{
		"uri":"data:image/jpeg;base64,"
	},
	{
		"uri":"data:image/jpeg;base64,"
	}],
	"samplers":[{
		"magFilter":9729,
		"minFilter":9729,
		"wrapS":10497,
		"wrapT":10497
	},
	{
		"magFilter":9729,
		"minFilter":9729,
		"wrapS":10497,
		"wrapT":10497
	},
	{
		"magFilter":9729,
		"minFilter":9729,
		"wrapS":10497,
		"wrapT":10497
	},
	{
		"magFilter":9729,
		"minFilter":9729,
		"wrapS":10497,
		"wrapT":10497
	},
	{
		"magFilter":9729,
		"minFilter":9729,
		"wrapS":10497,
		"wrapT":10497
	},
	{
		"magFilter":9729,
		"minFilter":9729,
		"wrapS":10497,
		"wrapT":10497
	},
	{
		"magFilter":9729,
		"minFilter":9729,
		"wrapS":10497,
		"wrapT":10497
	},
	{
		"magFilter":9729,
		"minFilter":9729,
		"wrapS":10497,
		"wrapT":10497
	}],
	"textures":[{
		"sampler":0,
		"source":0
	},
	{
		"sampler":1,
		"source":1
	},
	{
		"sampler":2,
		"source":2
	},
	{
		"sampler":3,
		"source":3
	},
	{
		"sampler":4,
		"source":4
	},
	{
		"sampler":5,
		"source":5
	},
	{
		"sampler":6,
		"source":6
	},
	{
		"sampler":7,
		"source":7
	}],
	"materials":[{
		"pbrMetallicRoughness":{
			"baseColorTexture":{
				"index":0
			},
			"baseColorFactor":[1.0,
			1.0,
			1.0,
			1.0],
			"metallicFactor":0.0,
			"roughnessFactor":0.5
		},
		"name":"Mat.18",
		"normalTexture":{
			"index":1,
			"scale":0.7000000000000001
		},
		"emissiveFactor":[0.0,
		0.0,
		0.0],
		"alphaMode":"OPAQUE",
		"doubleSided":true
	},
	{
		"pbrMetallicRoughness":{
			"baseColorTexture":{
				"index":2
			},
			"baseColorFactor":[1.0,
			1.0,
			1.0,
			1.0],
			"metallicFactor":1.0,
			"roughnessFactor":1.0
		},
		"emissiveFactor":[0.0,
		0.0,
		0.0],
		"alphaMode":"OPAQUE",
		"doubleSided":true,
		"name":"Mat.17"
	},
	{
		"pbrMetallicRoughness":{
			"baseColorTexture":{
				"index":3
			},
			"baseColorFactor":[1.0,
			1.0,
			1.0,
			1.0],
			"metallicFactor":1.0,
			"roughnessFactor":1.0
		},
		"emissiveFactor":[0.0,
		0.0,
		0.0],
		"alphaMode":"OPAQUE",
		"doubleSided":true,
		"name":"Mat.16"
	},
	{
		"pbrMetallicRoughness":{
			"baseColorTexture":{
				"index":4
			},
			"baseColorFactor":[1.0,
			1.0,
			1.0,
			1.0],
			"metallicFactor":1.0,
			"roughnessFactor":1.0
		},
		"emissiveFactor":[0.0,
		0.0,
		0.0],
		"alphaMode":"OPAQUE",
		"doubleSided":true,
		"name":"Mat.15"
	},
	{
		"pbrMetallicRoughness":{
			"baseColorTexture":{
				"index":5
			},
			"baseColorFactor":[1.0,
			1.0,
			1.0,
			1.0],
			"metallicFactor":1.0,
			"roughnessFactor":1.0
		},
		"emissiveFactor":[0.0,
		0.0,
		0.0],
		"alphaMode":"OPAQUE",
		"doubleSided":true,
		"name":"Mat.14"
	},
	{
		"pbrMetallicRoughness":{
			"baseColorTexture":{
				"index":6
			},
			"baseColorFactor":[1.0,
			1.0,
			1.0,
			1.0],
			"metallicFactor":1.0,
			"roughnessFactor":1.0
		},
		"emissiveFactor":[0.0,
		0.0,
		0.0],
		"alphaMode":"OPAQUE",
		"doubleSided":true,
		"name":"Mat.13"
	},
	{
		"pbrMetallicRoughness":{
			"baseColorTexture":{
				"index":7
			},
			"baseColorFactor":[1.0,
			1.0,
			1.0,
			1.0],
			"metallicFactor":0.0,
			"roughnessFactor":0.5
		},
		"emissiveFactor":[0.0,
		0.0,
		0.0],
		"alphaMode":"OPAQUE",
		"doubleSided":true,
		"name":"Mat.11"
	}],
	"animations":[{
		"samplers":[{
			"input":4,
			"interpolation":"LINEAR",
			"output":5
		},
		{
			"input":6,
			"interpolation":"LINEAR",
			"output":7
		},
		{
			"input":13,
			"interpolation":"LINEAR",
			"output":14
		},
		{
			"input":20,
			"interpolation":"LINEAR",
			"output":21
		},
		{
			"input":22,
			"interpolation":"LINEAR",
			"output":23
		},
		{
			"input":29,
			"interpolation":"LINEAR",
			"output":30
		},
		{
			"input":31,
			"interpolation":"LINEAR",
			"output":32
		},
		{
			"input":38,
			"interpolation":"LINEAR",
			"output":39
		},
		{
			"input":40,
			"interpolation":"LINEAR",
			"output":41
		},
		{
			"input":47,
			"interpolation":"LINEAR",
			"output":48
		},
		{
			"input":49,
			"interpolation":"LINEAR",
			"output":50
		},
		{
			"input":56,
			"interpolation":"LINEAR",
			"output":57
		},
		{
			"input":58,
			"interpolation":"LINEAR",
			"output":59
		}],
		"channels":[{
			"sampler":0,
			"target":{
				"node":0,
				"path":"translation"
			}
		},
		{
			"sampler":1,
			"target":{
				"node":0,
				"path":"rotation"
			}
		},
		{
			"sampler":2,
			"target":{
				"node":1,
				"path":"weights"
			}
		},
		{
			"sampler":3,
			"target":{
				"node":2,
				"path":"rotation"
			}
		},
		{
			"sampler":4,
			"target":{
				"node":2,
				"path":"weights"
			}
		},
		{
			"sampler":5,
			"target":{
				"node":3,
				"path":"translation"
			}
		},
		{
			"sampler":6,
			"target":{
				"node":3,
				"path":"weights"
			}
		},
		{
			"sampler":7,
			"target":{
				"node":4,
				"path":"rotation"
			}
		},
		{
			"sampler":8,
			"target":{
				"node":4,
				"path":"weights"
			}
		},
		{
			"sampler":9,
			"target":{
				"node":5,
				"path":"rotation"
			}
		},
		{
			"sampler":10,
			"target":{
				"node":5,
				"path":"weights"
			}
		},
		{
			"sampler":11,
			"target":{
				"node":6,
				"path":"translation"
			}
		},
		{
			"sampler":12,
			"target":{
				"node":6,
				"path":"weights"
			}
		}]
	}]
}